<!-- <?xml version="1.0" standalone="no"?>
<!DOCTYPE svg PUBLIC "-//W3C//DTD SVG 20010904//EN"
 "http://www.w3.org/TR/2001/REC-SVG-20010904/DTD/svg10.dtd"> -->
<svg version="1.0" xmlns="http://www.w3.org/2000/svg"
 width="300.000000pt" height="58.000000pt" viewBox="0 0 300.000000 58.000000"
 preserveAspectRatio="xMidYMid meet">
<!-- <metadata>
Created by potrace 1.10, written by Peter Selinger 2001-2011
</metadata> -->
<g transform="translate(0.000000,58.000000) scale(0.100000,-0.100000)"
fill="#000000" stroke="none">
<path d="M204 498 c-21 -17 -25 -27 -21 -52 7 -43 -47 -181 -90 -229 -24 -27
-32 -44 -28 -58 4 -11 2 -26 -4 -33 -8 -9 -7 -18 2 -31 12 -16 32 -17 198 -17
260 2 283 4 709 58 19 2 81 16 138 29 57 14 114 25 127 25 13 0 26 4 29 9 4 5
14 8 24 6 9 -1 24 1 33 6 9 5 32 11 50 14 19 2 81 14 138 25 57 12 110 19 118
15 15 -5 15 -31 -1 -95 -18 -75 -18 -91 -1 -110 22 -24 62 -26 87 -3 16 15 20
15 36 1 22 -20 53 -18 76 5 21 21 21 21 51 1 19 -13 46 -14 147 -10 68 3 147
5 176 5 64 1 92 24 90 74 -1 18 7 55 17 81 15 38 22 46 39 44 15 -2 22 -11 24
-34 2 -23 -5 -39 -33 -68 -34 -36 -35 -40 -21 -61 27 -41 122 -41 155 1 l18
23 24 -26 c24 -25 24 -25 152 -20 213 9 317 65 317 170 0 138 -166 206 -520
211 -269 4 -442 -11 -744 -65 -137 -25 -171 -28 -177 -17 -14 21 -11 33 16 58
28 26 32 52 12 68 -12 10 -71 12 -424 12 -18 0 -39 0 -45 0 -7 0 -36 1 -63 2
-44 2 -56 -2 -92 -31 l-41 -33 -30 33 c-27 30 -33 32 -83 29 -30 -1 -61 -2
-69 -2 -8 1 -43 3 -77 6 -54 3 -64 1 -83 -19 -17 -18 -20 -30 -15 -58 5 -24 2
-45 -8 -64 -8 -15 -20 -40 -27 -55 -20 -42 -43 -25 -34 26 23 131 -19 173
-174 174 -57 0 -77 -4 -98 -20z m886 -22 c0 -8 -10 -16 -22 -18 -18 -2 -33
-23 -65 -88 -45 -92 -52 -115 -28 -106 8 3 15 2 15 -3 0 -15 -24 -28 -65 -35
-22 -4 -48 -9 -57 -12 -26 -8 -22 19 4 31 21 10 115 182 104 192 -2 3 -10 -6
-17 -19 -7 -12 -42 -65 -78 -116 -50 -70 -71 -92 -88 -92 -27 0 -27 4 -10 137
7 50 11 90 8 87 -7 -7 -71 -178 -71 -191 0 -7 7 -13 15 -13 29 0 3 -28 -33
-35 -20 -3 -45 -8 -54 -11 -27 -8 -22 25 5 35 18 7 32 32 60 109 41 111 43
122 22 122 -9 0 -12 6 -9 15 5 11 22 15 66 15 l59 0 -6 -57 c-4 -32 -11 -78
-15 -103 -5 -25 -7 -46 -6 -47 1 -1 30 37 64 85 34 48 68 95 75 104 9 11 32
18 68 21 30 2 55 4 57 5 1 1 2 -4 2 -12z m97 -19 c-33 -27 -93 -167 -72 -167
8 0 12 -6 9 -13 -6 -18 -114 -38 -114 -23 0 6 10 16 21 21 24 11 93 171 78
181 -22 13 -5 23 44 26 28 2 54 2 57 0 2 -2 -8 -13 -23 -25z m213 18 c0 -8 -6
-15 -14 -15 -8 0 -29 -12 -46 -27 -28 -23 -31 -30 -25 -62 4 -20 12 -39 18
-43 18 -11 -2 -25 -48 -33 -37 -6 -39 -5 -24 10 13 13 15 24 8 48 -8 28 -5 35
26 67 19 20 35 41 35 47 0 7 12 14 28 16 15 2 30 5 35 6 4 0 7 -6 7 -14z m160
7 c0 -5 -7 -17 -16 -28 -11 -13 -17 -15 -20 -6 -9 20 -52 14 -64 -9 -16 -28
-4 -36 20 -14 27 24 37 12 16 -20 -18 -27 -36 -33 -36 -12 -1 14 -40 -30 -40
-45 0 -12 40 0 63 20 21 19 33 10 19 -14 -10 -17 -91 -43 -137 -43 -20 -1 -20
0 1 17 25 20 65 117 58 137 -5 11 8 15 58 18 34 2 66 4 71 5 4 1 7 -2 7 -6z
m-1132 -18 c30 -21 29 -77 -1 -146 -54 -121 -113 -157 -254 -158 -78 0 -91 2
-87 15 4 8 12 15 19 15 25 0 42 28 85 136 38 93 41 108 28 118 -8 6 -13 17
-11 24 7 19 192 17 221 -4z m272 6 c0 -6 -11 -14 -23 -19 -17 -7 -30 -27 -47
-73 -37 -103 -69 -157 -103 -178 -35 -22 -91 -26 -132 -10 l-27 10 26 31 c14
17 26 34 26 39 0 4 11 10 25 12 26 5 27 2 8 -49 -3 -8 4 -13 20 -13 31 0 48
25 87 127 34 88 36 103 15 103 -9 0 -12 6 -9 15 5 11 22 15 70 15 37 0 64 -4
64 -10z m598 -13 c-28 -26 -70 -129 -62 -151 7 -18 -1 -22 -56 -30 l-45 -7 26
23 c32 27 88 160 70 166 -25 8 3 22 46 22 l46 0 -25 -23z m1409 -52 c108 -19
207 -64 228 -105 38 -74 -4 -144 -105 -174 -72 -21 -310 -34 -310 -17 0 7 8
15 19 18 23 6 100 192 83 202 -6 4 -8 11 -4 17 8 12 140 -2 155 -16 10 -8 -12
-60 -26 -60 -5 0 -11 9 -14 20 -3 11 -8 20 -12 20 -3 0 -16 3 -27 6 -17 4 -23
0 -28 -19 -3 -14 -9 -32 -12 -41 -4 -11 -1 -16 10 -16 9 0 19 7 22 15 6 15 34
22 34 8 0 -27 -27 -73 -43 -73 -10 0 -15 5 -12 10 3 6 -2 10 -13 10 -13 0 -24
-13 -35 -41 l-16 -42 80 8 c45 3 101 13 126 20 93 28 120 91 63 145 -67 63
-203 84 -525 84 -286 0 -410 -16 -915 -120 -448 -93 -547 -111 -705 -128 -274
-31 -655 -46 -655 -26 0 6 12 10 28 10 96 1 437 22 551 35 178 20 310 44 626
111 527 112 688 139 909 153 167 11 417 4 523 -14z m-2023 -56 c-24 -70 -54
-118 -54 -85 0 43 55 156 76 156 1 0 -9 -32 -22 -71z m1530 7 c-3 -8 -13 -16
-21 -18 -10 -2 -34 -45 -60 -108 -38 -93 -41 -106 -27 -117 21 -15 4 -24 -57
-28 -51 -4 -63 7 -29 25 16 8 50 67 50 86 0 2 -15 4 -33 4 -31 0 -36 -4 -51
-42 -10 -27 -12 -44 -6 -46 5 -2 10 -10 10 -18 0 -10 -14 -14 -55 -14 -54 0
-76 16 -36 27 18 5 31 32 98 199 6 16 -31 23 -49 10 -8 -6 -45 -64 -83 -128
-57 -100 -71 -118 -92 -118 -19 0 -23 4 -19 18 8 25 36 152 36 160 0 4 -23
-34 -51 -85 -38 -68 -57 -92 -75 -96 -29 -5 -29 -4 -5 105 13 62 16 89 8 97
-16 16 1 27 51 35 28 4 42 3 42 -5 0 -6 -8 -13 -18 -16 -14 -3 -23 -23 -34
-76 -9 -40 -15 -73 -13 -75 1 -1 26 40 55 93 43 76 58 95 76 95 l22 0 -24 -92
c-12 -51 -21 -94 -19 -96 2 -2 24 36 49 84 30 58 42 91 34 95 -17 11 31 31 63
27 16 -3 30 -1 31 2 2 4 27 10 56 14 43 6 52 4 52 -9 0 -8 -7 -15 -15 -15 -14
0 -36 -34 -49 -77 -7 -21 -4 -23 26 -23 31 0 35 4 51 47 14 37 15 48 5 54 -26
16 16 36 79 38 24 1 31 -3 27 -13z m146 4 c0 -6 -10 -14 -23 -19 -17 -7 -32
-33 -60 -103 -39 -98 -43 -118 -27 -118 6 0 10 -6 10 -14 0 -11 -17 -15 -65
-18 -48 -2 -65 0 -65 10 0 7 10 16 23 21 18 7 34 35 65 110 23 56 42 104 42
106 0 3 -7 5 -15 5 -9 0 -12 6 -9 15 7 18 124 22 124 5z m187 4 l51 -7 -16
-43 c-13 -35 -21 -44 -40 -44 -19 0 -21 3 -12 19 15 28 12 41 -7 41 -16 0 -38
-45 -88 -182 -4 -10 -1 -18 9 -20 32 -7 -1 -25 -56 -31 -43 -4 -58 -2 -58 7 0
7 10 17 23 23 15 7 34 39 60 102 20 51 37 96 37 102 0 21 -31 7 -45 -21 -9
-18 -23 -30 -35 -30 -17 0 -18 4 -10 26 23 60 28 64 83 64 29 0 75 -3 104 -6z
m311 -117 c4 -32 -30 -56 -89 -64 -40 -6 -41 -5 -34 18 4 13 23 41 43 61 33
34 38 37 56 24 12 -7 22 -25 24 -39z m-308 -30 c0 -23 -45 -87 -62 -87 -14 0
-3 65 17 96 18 27 45 22 45 -9z"/>
<path d="M285 408 c-7 -18 -29 -72 -48 -120 l-35 -88 27 0 c62 0 133 83 148
173 7 45 -9 67 -49 67 -23 0 -32 -6 -43 -32z m55 -39 c0 -27 -42 -99 -57 -99
-9 0 -7 15 8 52 11 29 23 56 25 60 10 15 24 8 24 -13z"/>
</g>
</svg>
